Coordinates
version=1
nRows=11
nColumns=46
inDegrees=yes

Units are S.I. units (second, meters, Newtons, ...)
Angles are in degrees.

endheader
time	pelvis_tilt	pelvis_list	pelvis_rotation	pelvis_tx	pelvis_ty	pelvis_tz	bb_angle	bb_tx	bb_ty	bb_tz	hip_flexion_r	hip_adduction_r	hip_rotation_r	knee_angle_r	knee_angle_r_beta	ankle_angle_r	subtalar_angle_r	mtp_angle_r	crank_angle_r	hip_flexion_l	hip_adduction_l	hip_rotation_l	knee_angle_l	knee_angle_l_beta	ankle_angle_l	subtalar_angle_l	mtp_angle_l	crank_angle_l	lumbar_extension	lumbar_bending	lumbar_rotation	arm_flex_r	arm_add_r	arm_rot_r	elbow_flex_r	pro_sup_r	wrist_flex_r	wrist_dev_r	arm_flex_l	arm_add_l	arm_rot_l	elbow_flex_l	pro_sup_l	wrist_flex_l	wrist_dev_l
      5.00500000	    -22.68072888	     -8.94500869	     -5.36942824	      0.41933372	      1.21337645	     -0.24153399	      0.00000000	      0.50000000	      0.00000000	      0.25000000	     66.20905488	      5.47941273	      0.09397014	     96.52955651	      1.68475859	      7.30797330	      0.63825337	      0.00000000	      0.00000000	     14.30149164	    -13.85306200	     -8.16425314	     19.80356215	      0.34563736	    -17.52362831	     -1.12779309	      0.00000000	      0.00000000	    -63.47770605	      8.71658931	      7.27939328	     49.05493413	    -11.61327667	     25.17314788	     81.80988681	     51.76507976	      0.00000000	      0.00000000	     38.81350601	    -18.91151418	     16.47199660	     82.92373589	     54.62314763	      0.00000000	      0.00000000
      5.01000000	    -22.95160512	     -8.63377819	     -5.89393930	      0.41844453	      1.21543460	     -0.24122604	      0.00000000	      0.50000000	      0.00000000	      0.25000000	     66.09930524	      5.77965880	      0.48972771	     94.93445271	      1.65691877	      8.35846197	      0.76990877	      0.00000000	      0.00000000	     15.49509860	    -13.65488641	     -7.42130345	     22.32987064	      0.38972976	    -17.87263806	     -2.78045704	      0.00000000	      0.00000000	    -63.86804065	      8.36668786	      7.48691456	     49.51264828	    -11.67456923	     25.15684074	     82.37338691	     51.85126489	      0.00000000	      0.00000000	     39.08331001	    -18.97303853	     16.27232995	     83.22068899	     54.65287015	      0.00000000	      0.00000000
      5.01500000	    -23.45366633	     -8.17483884	     -6.10440191	      0.41719229	      1.21700435	     -0.24148930	      0.00000000	      0.50000000	      0.00000000	      0.25000000	     66.11302148	      5.64019954	      0.83908779	     93.22724663	      1.62712241	      9.60060924	      0.87458248	      0.00000000	      0.00000000	     17.22015396	    -13.11265478	     -5.93179274	     25.06498963	      0.43746660	    -18.53355248	     -4.91913305	      0.00000000	      0.00000000	    -64.08172498	      8.18345932	      7.63709906	     49.65403121	    -12.20520676	     25.07732729	     83.82013074	     51.78825046	      0.00000000	      0.00000000	     39.30673661	    -18.74576881	     16.05175518	     83.99890664	     54.31397361	      0.00000000	      0.00000000
      5.02000000	    -23.63306394	     -7.69182160	     -6.68165904	      0.41648829	      1.21896174	     -0.24098475	      0.00000000	      0.50000000	      0.00000000	      0.25000000	     65.52935765	      5.93777914	      1.39391468	     91.25038722	      1.59261970	     10.99217882	      0.59853254	      0.00000000	      0.00000000	     18.44968873	    -12.74809559	     -5.36205041	     27.85872750	      0.48622652	    -18.71683719	     -6.22690213	      0.00000000	      0.00000000	    -64.54391182	      7.53710615	      7.74455875	     49.94852286	    -12.16032069	     24.69085660	     84.36966051	     51.74653001	      0.00000000	      0.00000000	     39.66598424	    -18.59570089	     15.73042939	     84.23729954	     54.17417921	      0.00000000	      0.00000000
      5.02500000	    -23.86613247	     -7.20739655	     -7.03874232	      0.41574170	      1.22053562	     -0.24079397	      0.00000000	      0.50000000	      0.00000000	      0.25000000	     64.86184053	      5.98405374	      1.84229325	     89.10447253	      1.55516642	     12.38752029	      0.35715987	      0.00000000	      0.00000000	     19.92876460	    -12.27644297	     -4.52086520	     30.81048073	      0.53774433	    -19.13499509	     -7.72763968	      0.00000000	      0.00000000	    -64.94894223	      7.14950724	      7.89719474	     50.15123370	    -12.47885452	     24.48723944	     85.52007593	     51.67802935	      0.00000000	      0.00000000	     39.99077490	    -18.47545496	     15.65002459	     84.78690656	     53.90935221	      0.00000000	      0.00000000
      5.03000000	    -23.92095376	     -6.45567913	     -7.43329834	      0.41540213	      1.22210110	     -0.24048462	      0.00000000	      0.50000000	      0.00000000	      0.25000000	     63.86907285	      5.85570858	      2.51547290	     86.85035207	      1.51582460	     13.91846265	      0.11021494	      0.00000000	      0.00000000	     21.24575269	    -11.56776523	     -4.47791111	     33.50283369	      0.58473476	    -20.32874401	     -9.51538655	      0.00000000	      0.00000000	    -65.54120497	      6.28931350	      8.66939083	     49.50576327	    -14.19119803	     23.91525881	     88.53008670	     51.94597011	      0.00000000	      0.00000000	     40.99913817	    -17.77937187	     16.64554696	     84.99279768	     53.87828077	      0.00000000	      0.00000000
      5.03500000	    -23.64611117	     -5.87791793	     -7.46026991	      0.41555044	      1.22386538	     -0.24065779	      0.00000000	      0.50000000	      0.00000000	      0.25000000	     62.36254104	      5.44179365	      2.74842717	     84.42260331	      1.47345239	     15.23704726	     -0.71289788	      0.00000000	      0.00000000	     22.19211693	    -10.75916358	     -3.00598178	     36.50754627	      0.63717688	    -20.49192748	    -10.21476992	      0.00000000	      0.00000000	    -66.34464964	      5.90911262	      8.55198004	     49.62491040	    -14.43027202	     23.49260038	     89.36200139	     52.03664973	      0.00000000	      0.00000000	     41.52373876	    -17.50284318	     16.67202089	     85.25113248	     53.94288245	      0.00000000	      0.00000000
      5.04000000	    -23.38337328	     -4.95876742	     -7.72964593	      0.41578056	      1.22518320	     -0.24061730	      0.00000000	      0.50000000	      0.00000000	      0.25000000	     60.79984015	      5.13825538	      3.54817328	     81.86788209	      1.42886409	     16.38967855	     -2.00024021	      0.00000000	      0.00000000	     23.10074913	     -9.75714664	     -2.65838295	     39.16972379	      0.68364065	    -21.15831099	    -11.13603730	      0.00000000	      0.00000000	    -66.97984715	      5.16245118	      8.25586572	     49.66046052	    -14.66483184	     23.16349237	     90.12811126	     52.12694504	      0.00000000	      0.00000000	     41.98605753	    -17.30054044	     16.63924191	     85.44908677	     53.98004311	      0.00000000	      0.00000000
      5.04500000	    -23.69773657	     -3.74667628	     -8.23397039	      0.41463088	      1.22541464	     -0.24059585	      0.00000000	      0.50000000	      0.00000000	      0.25000000	     59.95599372	      4.76128260	      4.35641584	     79.10496135	      1.38064203	     16.87007643	     -3.64052011	      0.00000000	      0.00000000	     24.77532812	     -8.53711184	     -2.48070108	     41.89387429	      0.73118604	    -22.26962339	    -12.50891810	      0.00000000	      0.00000000	    -66.98460842	      3.93507042	      9.36567685	     48.04786338	    -16.60812252	     20.99508858	     93.62585922	     52.45615704	      0.00000000	      0.00000000	     43.58314702	    -15.67157622	     18.26767295	     84.39865121	     54.13301709	      0.00000000	      0.00000000
      5.05000000	    -23.49347480	     -2.79850276	     -8.47586034	      0.41465278	      1.22606250	     -0.24042190	      0.00000000	      0.50000000	      0.00000000	      0.25000000	     58.40353073	      4.30239073	      4.99298954	     76.33576435	      1.33231042	     17.74912778	     -4.23498797	      0.00000000	      0.00000000	     25.77126493	     -7.55339191	     -2.39507829	     44.47120487	      0.77616895	    -22.79674429	    -13.16806659	      0.00000000	      0.00000000	    -67.43252725	      3.14885758	      8.86356409	     48.05610648	    -16.70607026	     20.74690748	     94.09150123	     52.50243284	      0.00000000	      0.00000000	     43.96218470	    -15.48086880	     18.33533132	     84.53526147	     54.17017761	      0.00000000	      0.00000000
      5.05500000	    -23.32020536	     -1.72078996	     -8.73478331	      0.41473193	      1.22640216	     -0.24037168	      0.00000000	      0.50000000	      0.00000000	      0.25000000	     56.90074699	      3.66747353	      5.68901660	     73.46843166	      1.28226603	     18.20481671	     -4.53242947	      0.00000000	      0.00000000	     26.68093245	     -6.40380445	     -2.38040406	     46.77762334	      0.81642354	    -23.27498160	    -13.31055309	      0.00000000	      0.00000000	    -67.67249450	      2.38497674	      8.22430013	     47.94887309	    -16.81988869	     20.59152839	     94.35096182	     52.52842214	      0.00000000	      0.00000000	     44.04423143	    -15.24074922	     18.45731481	     84.56648670	     54.19292201	      0.00000000	      0.00000000
